<svg xmlns="http://www.w3.org/2000/svg" xml:space="preserve" width="100" height="100" viewBox="0 0 96.7 96.7" shape-rendering="geometricPrecision" text-rendering="geometricPrecision" image-rendering="optimizeQuality" fill-rule="evenodd" clip-rule="evenodd"><path fill="none" d="M0 0h96.7v96.7H0z"/><path d="M69.2 59.1c1.75-3.35 2.68-7.11 2.68-10.91 0-12.98-10.55-23.53-23.53-23.53S24.82 35.21 24.82 48.19s10.55 23.53 23.53 23.53c3.63 0 7.1-.81 10.33-2.39l2.23 2.24c.31.3.71.47 1.14.47.43 0 .83-.17 1.13-.47l8.12-8.12c.3-.3.47-.7.47-1.13 0-.43-.17-.84-.47-1.14l-2.1-2.08zm-3.86-3.83c1.4-.43 2.78-.92 4.14-1.45-.37 1.4-.88 2.75-1.52 4.05l-2.62-2.6zm-.82-8.81c-.18-.42-.61-.67-1.16-.67H57.8c-.07-1.54-.19-3.07-.38-4.58 4.2.69 8.36 1.86 12.39 3.53.05.02.1.02.14.03.18 1.12.27 2.26.27 3.42 0 1.25-.11 2.49-.32 3.71-.03.01-.06.01-.09.02-1.89.78-3.84 1.46-5.79 2.03l-3.04-3.01 3.2-3.19c.38-.39.51-.87.34-1.29zm-19 .93v8.72a57.37 57.37 0 0 1-4.55-.41c-.66-4.9-.66-9.85 0-14.75 4.9-.65 9.85-.66 14.74 0 .21 1.6.36 3.21.43 4.84h-9.02c-.88 0-1.6.72-1.6 1.6zM26.8 51.9a21.6 21.6 0 0 1-.32-3.71c0-1.16.09-2.3.26-3.42.05-.01.1-.01.15-.03 4.03-1.67 8.18-2.83 12.38-3.53-.6 4.73-.6 9.5 0 14.23-4.24-.69-8.39-1.87-12.38-3.52-.03-.01-.06-.01-.09-.02zm42.77-9.03c-4.05-1.6-8.2-2.73-12.4-3.39-.66-4.27-1.8-8.44-3.41-12.48 7.75 1.98 13.86 8.11 15.81 15.87zM51.89 26.61c0 .08.01.17.05.26 1.65 4 2.83 8.14 3.52 12.38-4.73-.6-9.5-.6-14.23 0 .7-4.2 1.86-8.35 3.53-12.38a.63.63 0 0 0 .05-.26 21.773 21.773 0 0 1 7.08 0zm-8.95.39a57.887 57.887 0 0 0-3.44 12.48c-4.19.66-8.33 1.79-12.37 3.39 1.95-7.76 8.06-13.89 15.81-15.87zM27.21 53.82c3.98 1.57 8.09 2.68 12.29 3.33.64 4.13 1.76 8.22 3.31 12.2-7.58-1.98-13.57-7.95-15.6-15.53zm17.54 15.94a56.389 56.389 0 0 1-3.52-12.36c1.42.18 2.85.3 4.29.37v5.86c0 .85.55 1.23 1.06 1.23.22 0 .56-.07.9-.41l3.12-3.2 3.23 3.23a57.25 57.25 0 0 1-1.88 5.29c-1.18.19-2.38.29-3.6.29-1.23 0-2.43-.1-3.6-.3zm9.13-.41c.46-1.17.88-2.35 1.26-3.55l2.29 2.29c-1.15.53-2.34.95-3.55 1.26zm8.17 1.01L51.77 60.08a1.606 1.606 0 0 0-2.27 0l-2.33 2.33-.05-14.96h15.02l-2.33 2.32c-.62.63-.62 1.64 0 2.27l10.32 10.24-8.08 8.08z" fill="#b3b3b3" fill-rule="nonzero"/></svg>